<svg id="Layer_1" data-name="Layer 1" xmlns="http://www.w3.org/2000/svg" xmlns:xlink="http://www.w3.org/1999/xlink" viewBox="0 0 1400 980"><defs><style>.cls-1{fill:url(#linear-gradient);}.cls-2{fill:url(#linear-gradient-2);}.cls-3{fill:url(#linear-gradient-3);}.cls-4{fill:url(#linear-gradient-4);}.cls-5{fill:url(#linear-gradient-5);}.cls-6{fill:url(#linear-gradient-6);}.cls-7{fill:url(#linear-gradient-7);}.cls-8{fill:url(#linear-gradient-8);}.cls-9{fill:url(#linear-gradient-9);}.cls-10{fill:url(#linear-gradient-10);}.cls-11{fill:url(#linear-gradient-11);}.cls-12{fill:url(#linear-gradient-12);}.cls-13{fill:url(#linear-gradient-13);}.cls-14{fill:url(#linear-gradient-14);}.cls-15{fill:url(#linear-gradient-15);}.cls-16{fill:url(#linear-gradient-16);}.cls-17{fill:url(#linear-gradient-17);}.cls-18{fill:url(#linear-gradient-18);}.cls-19{fill:url(#linear-gradient-19);}.cls-20{fill:url(#linear-gradient-20);}.cls-21{fill:url(#linear-gradient-21);}.cls-22{fill:url(#linear-gradient-22);}.cls-23{fill:url(#linear-gradient-23);}.cls-24{fill:url(#linear-gradient-24);}.cls-25{fill:url(#linear-gradient-25);}.cls-26{fill:url(#linear-gradient-26);}.cls-27{fill:url(#linear-gradient-27);}.cls-28{fill:url(#linear-gradient-28);}.cls-29{fill:url(#linear-gradient-29);}.cls-30{fill:url(#linear-gradient-30);}.cls-31{fill:url(#linear-gradient-31);}.cls-32{fill:url(#linear-gradient-32);}.cls-33{fill:url(#linear-gradient-33);}.cls-34{fill:url(#linear-gradient-34);}.cls-35{fill:url(#linear-gradient-35);}.cls-36{fill:url(#linear-gradient-36);}.cls-37{fill:url(#linear-gradient-37);}.cls-38{fill:url(#linear-gradient-38);}.cls-39{fill:url(#linear-gradient-39);}.cls-40{fill:url(#linear-gradient-40);}.cls-41{fill:url(#linear-gradient-41);}.cls-42{fill:url(#linear-gradient-42);}.cls-43{fill:url(#linear-gradient-43);}.cls-44{fill:url(#linear-gradient-44);}.cls-45{fill:url(#linear-gradient-45);}.cls-46{fill:url(#linear-gradient-46);}.cls-47{fill:url(#linear-gradient-47);}.cls-48{fill:url(#linear-gradient-48);}.cls-49{fill:url(#linear-gradient-49);}.cls-50{fill:url(#linear-gradient-50);}.cls-51{fill:url(#linear-gradient-51);}.cls-52{fill:url(#linear-gradient-52);}.cls-53{fill:url(#linear-gradient-53);}.cls-54{fill:url(#linear-gradient-54);}.cls-55{fill:url(#linear-gradient-55);}.cls-56{fill:url(#linear-gradient-56);}.cls-57{fill:url(#linear-gradient-57);}.cls-58{fill:url(#linear-gradient-58);}.cls-59{fill:url(#linear-gradient-59);}.cls-60{fill:url(#linear-gradient-60);}.cls-61{fill:url(#linear-gradient-61);}.cls-62{fill:url(#linear-gradient-62);}.cls-63{fill:url(#linear-gradient-63);}.cls-64{fill:url(#linear-gradient-64);}.cls-65{fill:url(#linear-gradient-65);}.cls-66{fill:url(#linear-gradient-66);}.cls-67{fill:url(#linear-gradient-67);}.cls-68{fill:url(#linear-gradient-68);}.cls-69{fill:url(#linear-gradient-69);}.cls-70{fill:url(#linear-gradient-70);}.cls-71{fill:url(#linear-gradient-71);}.cls-72{fill:url(#linear-gradient-72);}.cls-73{fill:url(#linear-gradient-73);}.cls-74{fill:url(#linear-gradient-74);}.cls-75{fill:url(#linear-gradient-75);}.cls-76{fill:url(#linear-gradient-76);}.cls-77{fill:url(#linear-gradient-77);}.cls-78{fill:url(#linear-gradient-78);}.cls-79{fill:url(#linear-gradient-79);}.cls-80{fill:url(#linear-gradient-80);}.cls-81{fill:url(#linear-gradient-81);}.cls-82{fill:url(#linear-gradient-82);}.cls-83{fill:url(#linear-gradient-83);}.cls-84{fill:url(#linear-gradient-84);}.cls-85{fill:url(#linear-gradient-85);}.cls-86{fill:url(#linear-gradient-86);}.cls-87{fill:url(#linear-gradient-87);}.cls-88{fill:url(#linear-gradient-88);}.cls-89{fill:url(#linear-gradient-89);}.cls-90{fill:url(#linear-gradient-90);}.cls-91{fill:url(#linear-gradient-91);}.cls-92{fill:url(#linear-gradient-92);}.cls-93{fill:url(#linear-gradient-93);}.cls-94{fill:url(#linear-gradient-94);}.cls-95{fill:url(#linear-gradient-95);}.cls-96{fill:url(#linear-gradient-96);}.cls-97{fill:url(#linear-gradient-97);}.cls-98{fill:url(#linear-gradient-98);}.cls-99{fill:url(#linear-gradient-99);}.cls-100{fill:url(#linear-gradient-100);}.cls-101{fill:url(#linear-gradient-101);}.cls-102{fill:url(#linear-gradient-102);}.cls-103{fill:url(#linear-gradient-103);}.cls-104{fill:url(#linear-gradient-104);}.cls-105{fill:url(#linear-gradient-105);}.cls-106{fill:url(#linear-gradient-106);}.cls-107{fill:url(#linear-gradient-107);}.cls-108{fill:url(#linear-gradient-108);}.cls-109{fill:url(#linear-gradient-109);}.cls-110{fill:url(#linear-gradient-110);}.cls-111{fill:url(#linear-gradient-111);}.cls-112{fill:url(#linear-gradient-112);}.cls-113{fill:url(#linear-gradient-113);}.cls-114{fill:url(#linear-gradient-114);}.cls-115{fill:url(#linear-gradient-115);}.cls-116{fill:url(#linear-gradient-116);}.cls-117{fill:url(#linear-gradient-117);}.cls-118{fill:url(#linear-gradient-118);}.cls-119{fill:url(#linear-gradient-119);}.cls-120{fill:url(#linear-gradient-120);}.cls-121{fill:url(#linear-gradient-121);}.cls-122{fill:url(#linear-gradient-122);}.cls-123{fill:url(#linear-gradient-123);}.cls-124{fill:url(#linear-gradient-124);}.cls-125{fill:url(#linear-gradient-125);}.cls-126{fill:url(#linear-gradient-126);}.cls-127{fill:url(#linear-gradient-127);}.cls-128{fill:url(#linear-gradient-128);}.cls-129{fill:url(#linear-gradient-129);}</style><linearGradient id="linear-gradient" x1="3283.39" y1="2550.26" x2="3335.51" y2="2679.51" gradientTransform="matrix(0.8, -0.59, 0.59, 0.8, -4256.92, 851.74)" gradientUnits="userSpaceOnUse"><stop offset="0.38" stop-color="#093028"/><stop offset="0.78" stop-color="#237a57"/></linearGradient><linearGradient id="linear-gradient-2" x1="3250.4" y1="2443.48" x2="3333.25" y2="2648.93" xlink:href="#linear-gradient"/><linearGradient id="linear-gradient-3" x1="3692.5" y1="971.35" x2="3790.89" y2="1069.15" gradientTransform="translate(-3917.8 854.23) rotate(-13.26)" xlink:href="#linear-gradient"/><linearGradient id="linear-gradient-4" x1="3621.26" y1="885.04" x2="3778.37" y2="1041.22" gradientTransform="translate(-3917.8 854.23) rotate(-13.26)" xlink:href="#linear-gradient"/><linearGradient id="linear-gradient-5" x1="3596.86" y1="824.11" x2="3777.78" y2="1003.95" gradientTransform="translate(-3917.8 854.23) rotate(-13.26)" xlink:href="#linear-gradient"/><linearGradient id="linear-gradient-6" x1="-4356.02" y1="1772.52" x2="-4393.86" y2="1829.57" gradientTransform="matrix(-0.91, 0.42, 0.42, 0.91, -4677.1, 1057.42)" xlink:href="#linear-gradient"/><linearGradient id="linear-gradient-7" x1="3837.92" y1="883.21" x2="3886.46" y2="931.47" gradientTransform="translate(-3917.8 854.23) rotate(-13.26)" xlink:href="#linear-gradient"/><linearGradient id="linear-gradient-8" x1="-4406.67" y1="1286.02" x2="-4469.05" y2="1361.4" gradientTransform="matrix(-0.95, 0.32, 0.32, 0.95, -4600.52, 991.99)" xlink:href="#linear-gradient"/><linearGradient id="linear-gradient-9" x1="3814.21" y1="830.69" x2="3883.8" y2="899.87" gradientTransform="translate(-3917.8 854.23) rotate(-13.26)" xlink:href="#linear-gradient"/><linearGradient id="linear-gradient-10" x1="-4418.39" y1="1050.85" x2="-4468.84" y2="1105.57" gradientTransform="matrix(-0.96, 0.27, 0.27, 0.96, -4563.44, 963.8)" xlink:href="#linear-gradient"/><linearGradient id="linear-gradient-11" x1="3806.13" y1="816.52" x2="3859.09" y2="869.16" gradientTransform="translate(-3917.8 854.23) rotate(-13.26)" xlink:href="#linear-gradient"/><linearGradient id="linear-gradient-12" x1="-4389.36" y1="1110.06" x2="-4466.36" y2="1199.25" gradientTransform="matrix(-0.95, 0.3, 0.3, 0.95, -4589.29, 982.74)" xlink:href="#linear-gradient"/><linearGradient id="linear-gradient-13" x1="3777.84" y1="744.01" x2="3861.59" y2="827.27" gradientTransform="translate(-3917.8 854.23) rotate(-13.26)" xlink:href="#linear-gradient"/><linearGradient id="linear-gradient-14" x1="3358.79" y1="2128.05" x2="3574.78" y2="2663.66" xlink:href="#linear-gradient"/><linearGradient id="linear-gradient-15" x1="-3938.3" y1="-1454.86" x2="-4028.85" y2="-1427.58" gradientTransform="matrix(-0.78, -0.63, -0.63, 0.78, -4016.67, -1074.61)" xlink:href="#linear-gradient"/><linearGradient id="linear-gradient-16" x1="3831.03" y1="489.87" x2="3898.1" y2="556.53" gradientTransform="translate(-3708.93 -934.71) rotate(10.93)" xlink:href="#linear-gradient"/><linearGradient id="linear-gradient-17" x1="-3041.94" y1="-1979.82" x2="-3131.17" y2="-1962.54" gradientTransform="matrix(-0.83, -0.88, -0.72, 0.68, -3985.67, -1096.4)" xlink:href="#linear-gradient"/><linearGradient id="linear-gradient-18" x1="3828.79" y1="437.88" x2="3896.98" y2="505.67" gradientTransform="translate(-3708.93 -934.71) rotate(10.93)" xlink:href="#linear-gradient"/><linearGradient id="linear-gradient-19" x1="3594.99" y1="2087.9" x2="3643.38" y2="2207.91" gradientTransform="translate(-4017.24 -1075.95) rotate(-12.28)" xlink:href="#linear-gradient"/><linearGradient id="linear-gradient-20" x1="3797.38" y1="422" x2="3889.15" y2="513.23" gradientTransform="translate(-3708.93 -934.71) rotate(10.93)" xlink:href="#linear-gradient"/><linearGradient id="linear-gradient-21" x1="-4418.09" y1="2025.69" x2="-4434.3" y2="2050.12" gradientTransform="matrix(-1, 0.01, 0.01, 1, -4484.81, -1060.51)" xlink:href="#linear-gradient"/><linearGradient id="linear-gradient-22" x1="3949.89" y1="1118.49" x2="3970.68" y2="1139.16" gradientTransform="translate(-3708.93 -934.71) rotate(10.93)" xlink:href="#linear-gradient"/><linearGradient id="linear-gradient-23" x1="-4424.47" y1="1938.91" x2="-4462.31" y2="1995.95" gradientTransform="matrix(-1, 0.01, 0.01, 1, -4484.81, -1060.51)" xlink:href="#linear-gradient"/><linearGradient id="linear-gradient-24" x1="3938.47" y1="1032.41" x2="3987.02" y2="1080.66" gradientTransform="translate(-3708.93 -934.71) rotate(10.93)" xlink:href="#linear-gradient"/><linearGradient id="linear-gradient-25" x1="-4492.29" y1="1444.26" x2="-4554.68" y2="1519.64" gradientTransform="matrix(-1, -0.09, -0.09, 1, -4388.15, -1088.82)" xlink:href="#linear-gradient"/><linearGradient id="linear-gradient-26" x1="3914.76" y1="979.88" x2="3984.35" y2="1049.06" gradientTransform="translate(-3708.93 -934.71) rotate(10.93)" xlink:href="#linear-gradient"/><linearGradient id="linear-gradient-27" x1="-4512.36" y1="1204.28" x2="-4562.82" y2="1259" gradientTransform="matrix(-0.99, -0.15, -0.15, 0.99, -4342.77, -1099.33)" xlink:href="#linear-gradient"/><linearGradient id="linear-gradient-28" x1="3906.68" y1="965.71" x2="3959.64" y2="1018.36" gradientTransform="translate(-3708.93 -934.71) rotate(10.93)" xlink:href="#linear-gradient"/><linearGradient id="linear-gradient-29" x1="-4478.27" y1="1266.48" x2="-4555.27" y2="1355.67" gradientTransform="matrix(-0.99, -0.11, -0.11, 0.99, -4374.12, -1092.65)" xlink:href="#linear-gradient"/><linearGradient id="linear-gradient-30" x1="3878.39" y1="893.2" x2="3962.15" y2="976.46" gradientTransform="translate(-3708.93 -934.71) rotate(10.93)" xlink:href="#linear-gradient"/><linearGradient id="linear-gradient-31" x1="-4471.98" y1="1210.81" x2="-4546.6" y2="1296.17" gradientTransform="matrix(-0.99, -0.12, -0.12, 0.99, -4371.16, -1093.83)" xlink:href="#linear-gradient"/><linearGradient id="linear-gradient-32" x1="3865.28" y1="864.56" x2="3945.69" y2="944.49" gradientTransform="translate(-3708.93 -934.71) rotate(10.93)" xlink:href="#linear-gradient"/><linearGradient id="linear-gradient-33" x1="-4485.45" y1="948.77" x2="-4556.14" y2="1021.23" gradientTransform="matrix(-0.98, -0.17, -0.17, 0.98, -4328.15, -1103.18)" xlink:href="#linear-gradient"/><linearGradient id="linear-gradient-34" x1="3859.36" y1="832.01" x2="3931.15" y2="903.37" gradientTransform="translate(-3708.93 -934.71) rotate(10.93)" xlink:href="#linear-gradient"/><linearGradient id="linear-gradient-35" x1="-4529.53" y1="465.73" x2="-4589.55" y2="515.07" gradientTransform="matrix(-0.96, -0.28, -0.28, 0.96, -4282.75, -1132.67)" xlink:href="#linear-gradient"/><linearGradient id="linear-gradient-36" x1="3864.27" y1="805.2" x2="3919.37" y2="859.97" gradientTransform="translate(-3708.93 -934.71) rotate(10.93)" xlink:href="#linear-gradient"/><linearGradient id="linear-gradient-37" x1="-4485.24" y1="97.97" x2="-4547.69" y2="141.76" gradientTransform="matrix(-0.94, -0.35, -0.35, 0.94, -4217.62, -1138.03)" xlink:href="#linear-gradient"/><linearGradient id="linear-gradient-38" x1="3864.85" y1="756.72" x2="3918.95" y2="810.5" gradientTransform="translate(-3708.93 -934.71) rotate(10.93)" xlink:href="#linear-gradient"/><linearGradient id="linear-gradient-39" x1="-4455.25" y1="-20.41" x2="-4535.46" y2="33.98" gradientTransform="matrix(-0.93, -0.37, -0.37, 0.93, -4205.48, -1138.64)" xlink:href="#linear-gradient"/><linearGradient id="linear-gradient-40" x1="3855.17" y1="700.59" x2="3923.91" y2="768.91" gradientTransform="translate(-3708.93 -934.71) rotate(10.93)" xlink:href="#linear-gradient"/><linearGradient id="linear-gradient-41" x1="-4366.69" y1="-344.46" x2="-4461.08" y2="-289.67" gradientTransform="matrix(-0.9, -0.43, -0.43, 0.9, -4150.24, -1138.67)" xlink:href="#linear-gradient"/><linearGradient id="linear-gradient-42" x1="3839.09" y1="657.82" x2="3916.54" y2="734.8" gradientTransform="translate(-3708.93 -934.71) rotate(10.93)" xlink:href="#linear-gradient"/><linearGradient id="linear-gradient-43" x1="-4345.53" y1="-435.35" x2="-4422.62" y2="-392.68" gradientTransform="matrix(-0.89, -0.45, -0.45, 0.89, -4136.52, -1138.47)" xlink:href="#linear-gradient"/><linearGradient id="linear-gradient-44" x1="3840.56" y1="650.05" x2="3903.05" y2="712.17" gradientTransform="translate(-3708.93 -934.71) rotate(10.93)" xlink:href="#linear-gradient"/><linearGradient id="linear-gradient-45" x1="-4277.68" y1="-611.71" x2="-4386.41" y2="-555.75" gradientTransform="matrix(-0.88, -0.48, -0.48, 0.88, -4115.58, -1137.26)" xlink:href="#linear-gradient"/><linearGradient id="linear-gradient-46" x1="3824.79" y1="588.2" x2="3911.52" y2="674.41" gradientTransform="translate(-3708.93 -934.71) rotate(10.93)" xlink:href="#linear-gradient"/><linearGradient id="linear-gradient-47" x1="-4231.25" y1="-797.16" x2="-4337.72" y2="-745.97" gradientTransform="matrix(-0.87, -0.5, -0.5, 0.87, -4112.38, -1133.19)" xlink:href="#linear-gradient"/><linearGradient id="linear-gradient-48" x1="3824.83" y1="516.76" x2="3908.61" y2="600.05" gradientTransform="translate(-3708.93 -934.71) rotate(10.93)" xlink:href="#linear-gradient"/><linearGradient id="linear-gradient-49" x1="3558.83" y1="2234.63" x2="3600.69" y2="2338.42" gradientTransform="translate(-4017.24 -1075.95) rotate(-12.28)" xlink:href="#linear-gradient"/><linearGradient id="linear-gradient-50" x1="3821.97" y1="571.1" x2="3901.35" y2="650" gradientTransform="translate(-3708.93 -934.71) rotate(10.93)" xlink:href="#linear-gradient"/><linearGradient id="linear-gradient-51" x1="3451.96" y1="2324.65" x2="3504.08" y2="2453.9" gradientTransform="matrix(0.8, 0.59, 0.59, -0.8, -4256.92, -152.99)" xlink:href="#linear-gradient"/><linearGradient id="linear-gradient-52" x1="3418.15" y1="2218.2" x2="3501" y2="2423.65" gradientTransform="matrix(0.8, 0.59, 0.59, -0.8, -4256.92, -152.99)" xlink:href="#linear-gradient"/><linearGradient id="linear-gradient-53" x1="3420.45" y1="2152.97" x2="3515.63" y2="2388.98" gradientTransform="matrix(0.8, 0.59, 0.59, -0.8, -4256.92, -152.99)" xlink:href="#linear-gradient"/><linearGradient id="linear-gradient-54" x1="3759.69" y1="696.39" x2="3858.07" y2="794.19" gradientTransform="matrix(0.97, 0.23, 0.23, -0.97, -3917.8, -155.48)" xlink:href="#linear-gradient"/><linearGradient id="linear-gradient-55" x1="3686.66" y1="611.88" x2="3843.77" y2="768.06" gradientTransform="matrix(0.97, 0.23, 0.23, -0.97, -3917.8, -155.48)" xlink:href="#linear-gradient"/><linearGradient id="linear-gradient-56" x1="3662.25" y1="550.95" x2="3843.18" y2="730.79" gradientTransform="matrix(0.97, 0.23, 0.23, -0.97, -3917.8, -155.48)" xlink:href="#linear-gradient"/><linearGradient id="linear-gradient-57" x1="-4475.09" y1="1518.13" x2="-4512.92" y2="1575.17" gradientTransform="translate(-4677.1 -358.67) rotate(-155.12)" xlink:href="#linear-gradient"/><linearGradient id="linear-gradient-58" x1="3903.31" y1="610.05" x2="3951.86" y2="658.31" gradientTransform="matrix(0.97, 0.23, 0.23, -0.97, -3917.8, -155.48)" xlink:href="#linear-gradient"/><linearGradient id="linear-gradient-59" x1="-4498.22" y1="1020.49" x2="-4560.61" y2="1095.87" gradientTransform="translate(-4600.52 -293.24) rotate(-161.18)" xlink:href="#linear-gradient"/><linearGradient id="linear-gradient-60" x1="3879.6" y1="557.53" x2="3949.2" y2="626.71" gradientTransform="matrix(0.97, 0.23, 0.23, -0.97, -3917.8, -155.48)" xlink:href="#linear-gradient"/><linearGradient id="linear-gradient-61" x1="-4495.6" y1="780.8" x2="-4546.05" y2="835.52" gradientTransform="matrix(-0.96, -0.27, 0.27, -0.96, -4563.44, -265.05)" xlink:href="#linear-gradient"/><linearGradient id="linear-gradient-62" x1="3871.52" y1="543.36" x2="3924.49" y2="596.01" gradientTransform="matrix(0.97, 0.23, 0.23, -0.97, -3917.8, -155.48)" xlink:href="#linear-gradient"/><linearGradient id="linear-gradient-63" x1="-4475.36" y1="842.68" x2="-4552.36" y2="931.87" gradientTransform="matrix(-0.95, -0.3, 0.3, -0.95, -4589.29, -284)" xlink:href="#linear-gradient"/><linearGradient id="linear-gradient-64" x1="3843.23" y1="470.85" x2="3926.99" y2="554.11" gradientTransform="matrix(0.97, 0.23, 0.23, -0.97, -3917.8, -155.48)" xlink:href="#linear-gradient"/><linearGradient id="linear-gradient-65" x1="3528.7" y1="1901.9" x2="3744.7" y2="2437.5" gradientTransform="matrix(0.8, 0.59, 0.59, -0.8, -4256.92, -152.99)" xlink:href="#linear-gradient"/><linearGradient id="linear-gradient-66" x1="4712.29" y1="4394.58" x2="4764.41" y2="4523.83" gradientTransform="matrix(-0.8, -0.59, -0.59, 0.8, 7901.51, 217.88)" xlink:href="#linear-gradient"/><linearGradient id="linear-gradient-67" x1="4679.3" y1="4287.8" x2="4762.15" y2="4493.25" gradientTransform="matrix(-0.8, -0.59, -0.59, 0.8, 7901.51, 217.88)" xlink:href="#linear-gradient"/><linearGradient id="linear-gradient-68" x1="4681.6" y1="4222.57" x2="4776.77" y2="4458.57" gradientTransform="matrix(-0.8, -0.59, -0.59, 0.8, 7901.51, 217.88)" xlink:href="#linear-gradient"/><linearGradient id="linear-gradient-69" x1="5732.58" y1="2103.32" x2="5830.97" y2="2201.12" gradientTransform="matrix(-0.97, -0.23, -0.23, 0.97, 7562.39, 220.38)" xlink:href="#linear-gradient"/><linearGradient id="linear-gradient-70" x1="5661.34" y1="2017.01" x2="5818.45" y2="2173.19" gradientTransform="matrix(-0.97, -0.23, -0.23, 0.97, 7562.39, 220.38)" xlink:href="#linear-gradient"/><linearGradient id="linear-gradient-71" x1="5636.94" y1="1956.08" x2="5817.86" y2="2135.92" gradientTransform="matrix(-0.97, -0.23, -0.23, 0.97, 7562.39, 220.38)" xlink:href="#linear-gradient"/><linearGradient id="linear-gradient-72" x1="-6126.36" y1="3292.12" x2="-6164.19" y2="3349.17" gradientTransform="translate(8321.69 423.56) rotate(24.88)" xlink:href="#linear-gradient"/><linearGradient id="linear-gradient-73" x1="5878" y1="2015.18" x2="5926.54" y2="2063.44" gradientTransform="matrix(-0.97, -0.23, -0.23, 0.97, 7562.39, 220.38)" xlink:href="#linear-gradient"/><linearGradient id="linear-gradient-74" x1="-6327.48" y1="2610.32" x2="-6389.86" y2="2685.7" gradientTransform="translate(8245.11 358.14) rotate(18.82)" xlink:href="#linear-gradient"/><linearGradient id="linear-gradient-75" x1="5854.29" y1="1962.66" x2="5923.88" y2="2031.84" gradientTransform="matrix(-0.97, -0.23, -0.23, 0.97, 7562.39, 220.38)" xlink:href="#linear-gradient"/><linearGradient id="linear-gradient-76" x1="-6407.33" y1="2270.44" x2="-6457.78" y2="2325.16" gradientTransform="translate(8208.03 329.95) rotate(15.75)" xlink:href="#linear-gradient"/><linearGradient id="linear-gradient-77" x1="5846.21" y1="1948.49" x2="5899.17" y2="2001.13" gradientTransform="matrix(-0.97, -0.23, -0.23, 0.97, 7562.39, 220.38)" xlink:href="#linear-gradient"/><linearGradient id="linear-gradient-78" x1="-6337.36" y1="2394.02" x2="-6414.37" y2="2483.21" gradientTransform="translate(8233.88 348.89) rotate(17.63)" xlink:href="#linear-gradient"/><linearGradient id="linear-gradient-79" x1="5817.92" y1="1875.98" x2="5901.67" y2="1959.24" gradientTransform="matrix(-0.97, -0.23, -0.23, 0.97, 7562.39, 220.38)" xlink:href="#linear-gradient"/><linearGradient id="linear-gradient-80" x1="4787.69" y1="3972.37" x2="5003.68" y2="4507.97" gradientTransform="matrix(-0.8, -0.59, -0.59, 0.8, 7901.51, 217.88)" xlink:href="#linear-gradient"/><linearGradient id="linear-gradient-81" x1="-6081.51" y1="-2377.66" x2="-6172.05" y2="-2350.38" gradientTransform="translate(7661.26 -1708.46) rotate(-38.99)" xlink:href="#linear-gradient"/><linearGradient id="linear-gradient-82" x1="6156.38" y1="683.79" x2="6223.45" y2="750.45" gradientTransform="matrix(-0.98, 0.19, 0.19, 0.98, 7353.52, -1568.56)" xlink:href="#linear-gradient"/><linearGradient id="linear-gradient-83" x1="-4702.64" y1="-3185.24" x2="-4791.87" y2="-3167.97" gradientTransform="matrix(0.83, -0.88, 0.72, 0.68, 7630.26, -1730.26)" xlink:href="#linear-gradient"/><linearGradient id="linear-gradient-84" x1="6154.14" y1="631.81" x2="6222.33" y2="699.59" gradientTransform="matrix(-0.98, 0.19, 0.19, 0.98, 7353.52, -1568.56)" xlink:href="#linear-gradient"/><linearGradient id="linear-gradient-85" x1="5655.73" y1="3182.5" x2="5704.13" y2="3302.51" gradientTransform="matrix(-0.98, -0.21, -0.21, 0.98, 7661.83, -1709.8)" xlink:href="#linear-gradient"/><linearGradient id="linear-gradient-86" x1="6122.73" y1="615.92" x2="6214.5" y2="707.15" gradientTransform="matrix(-0.98, 0.19, 0.19, 0.98, 7353.52, -1568.56)" xlink:href="#linear-gradient"/><linearGradient id="linear-gradient-87" x1="-6656.76" y1="2683.91" x2="-6672.96" y2="2708.34" gradientTransform="translate(8129.4 -1694.37) rotate(0.69)" xlink:href="#linear-gradient"/><linearGradient id="linear-gradient-88" x1="6275.24" y1="1312.42" x2="6296.03" y2="1333.08" gradientTransform="matrix(-0.98, 0.19, 0.19, 0.98, 7353.52, -1568.56)" xlink:href="#linear-gradient"/><linearGradient id="linear-gradient-89" x1="-6663.14" y1="2597.13" x2="-6700.97" y2="2654.17" gradientTransform="translate(8129.4 -1694.37) rotate(0.69)" xlink:href="#linear-gradient"/><linearGradient id="linear-gradient-90" x1="6263.82" y1="1226.33" x2="6312.37" y2="1274.58" gradientTransform="matrix(-0.98, 0.19, 0.19, 0.98, 7353.52, -1568.56)" xlink:href="#linear-gradient"/><linearGradient id="linear-gradient-91" x1="-6787.92" y1="1862.56" x2="-6850.3" y2="1937.94" gradientTransform="translate(8032.74 -1722.67) rotate(-5.37)" xlink:href="#linear-gradient"/><linearGradient id="linear-gradient-92" x1="6240.11" y1="1173.81" x2="6309.71" y2="1242.98" gradientTransform="matrix(-0.98, 0.19, 0.19, 0.98, 7353.52, -1568.56)" xlink:href="#linear-gradient"/><linearGradient id="linear-gradient-93" x1="-6827.08" y1="1499.11" x2="-6877.54" y2="1553.83" gradientTransform="translate(7987.36 -1733.18) rotate(-8.44)" xlink:href="#linear-gradient"/><linearGradient id="linear-gradient-94" x1="6232.03" y1="1159.63" x2="6285" y2="1212.28" gradientTransform="matrix(-0.98, 0.19, 0.19, 0.98, 7353.52, -1568.56)" xlink:href="#linear-gradient"/><linearGradient id="linear-gradient-95" x1="-6782.11" y1="1636.82" x2="-6859.12" y2="1726.01" gradientTransform="translate(8018.7 -1726.5) rotate(-6.56)" xlink:href="#linear-gradient"/><linearGradient id="linear-gradient-96" x1="6203.74" y1="1087.12" x2="6287.5" y2="1170.38" gradientTransform="matrix(-0.98, 0.19, 0.19, 0.98, 7353.52, -1568.56)" xlink:href="#linear-gradient"/><linearGradient id="linear-gradient-97" x1="-6778.08" y1="1566.8" x2="-6852.71" y2="1652.16" gradientTransform="translate(8015.75 -1727.69) rotate(-6.92)" xlink:href="#linear-gradient"/><linearGradient id="linear-gradient-98" x1="6190.63" y1="1058.48" x2="6271.04" y2="1138.41" gradientTransform="matrix(-0.98, 0.19, 0.19, 0.98, 7353.52, -1568.56)" xlink:href="#linear-gradient"/><linearGradient id="linear-gradient-99" x1="-6807.54" y1="1178.55" x2="-6878.22" y2="1251.02" gradientTransform="translate(7972.74 -1737.03) rotate(-10.04)" xlink:href="#linear-gradient"/><linearGradient id="linear-gradient-100" x1="6184.72" y1="1025.93" x2="6256.51" y2="1097.29" gradientTransform="matrix(-0.98, 0.19, 0.19, 0.98, 7353.52, -1568.56)" xlink:href="#linear-gradient"/><linearGradient id="linear-gradient-101" x1="-6862.81" y1="439.8" x2="-6922.83" y2="489.15" gradientTransform="translate(7927.34 -1766.53) rotate(-16.33)" xlink:href="#linear-gradient"/><linearGradient id="linear-gradient-102" x1="6189.62" y1="999.12" x2="6244.72" y2="1053.9" gradientTransform="matrix(-0.98, 0.19, 0.19, 0.98, 7353.52, -1568.56)" xlink:href="#linear-gradient"/><linearGradient id="linear-gradient-103" x1="-6809.69" y1="-106.42" x2="-6872.15" y2="-62.63" gradientTransform="translate(7862.21 -1771.88) rotate(-20.72)" xlink:href="#linear-gradient"/><linearGradient id="linear-gradient-104" x1="6190.2" y1="950.64" x2="6244.3" y2="1004.42" gradientTransform="matrix(-0.98, 0.19, 0.19, 0.98, 7353.52, -1568.56)" xlink:href="#linear-gradient"/><linearGradient id="linear-gradient-105" x1="-6776.23" y1="-261.08" x2="-6856.44" y2="-206.69" gradientTransform="translate(7850.07 -1772.5) rotate(-21.62)" xlink:href="#linear-gradient"/><linearGradient id="linear-gradient-106" x1="6180.52" y1="894.51" x2="6249.26" y2="962.83" gradientTransform="matrix(-0.98, 0.19, 0.19, 0.98, 7353.52, -1568.56)" xlink:href="#linear-gradient"/><linearGradient id="linear-gradient-107" x1="-6665.2" y1="-746.59" x2="-6759.59" y2="-691.8" gradientTransform="translate(7794.83 -1772.53) rotate(-25.62)" xlink:href="#linear-gradient"/><linearGradient id="linear-gradient-108" x1="6164.44" y1="851.74" x2="6241.89" y2="928.73" gradientTransform="matrix(-0.98, 0.19, 0.19, 0.98, 7353.52, -1568.56)" xlink:href="#linear-gradient"/><linearGradient id="linear-gradient-109" x1="-6635.33" y1="-884.44" x2="-6712.42" y2="-841.77" gradientTransform="matrix(0.89, -0.45, 0.45, 0.89, 7781.11, -1772.32)" xlink:href="#linear-gradient"/><linearGradient id="linear-gradient-110" x1="6165.91" y1="843.98" x2="6228.41" y2="906.09" gradientTransform="matrix(-0.98, 0.19, 0.19, 0.98, 7353.52, -1568.56)" xlink:href="#linear-gradient"/><linearGradient id="linear-gradient-111" x1="-6552.86" y1="-1129.79" x2="-6661.59" y2="-1073.83" gradientTransform="translate(7760.16 -1771.11) rotate(-28.52)" xlink:href="#linear-gradient"/><linearGradient id="linear-gradient-112" x1="6150.14" y1="782.12" x2="6236.87" y2="868.33" gradientTransform="matrix(-0.98, 0.19, 0.19, 0.98, 7353.52, -1568.56)" xlink:href="#linear-gradient"/><linearGradient id="linear-gradient-113" x1="-6491.51" y1="-1376.87" x2="-6597.97" y2="-1325.68" gradientTransform="matrix(0.87, -0.5, 0.5, 0.87, 7756.97, -1767.04)" xlink:href="#linear-gradient"/><linearGradient id="linear-gradient-114" x1="6150.18" y1="710.69" x2="6233.96" y2="793.97" gradientTransform="matrix(-0.98, 0.19, 0.19, 0.98, 7353.52, -1568.56)" xlink:href="#linear-gradient"/><linearGradient id="linear-gradient-115" x1="5619.58" y1="3329.23" x2="5661.44" y2="3433.02" gradientTransform="matrix(-0.98, -0.21, -0.21, 0.98, 7661.83, -1709.8)" xlink:href="#linear-gradient"/><linearGradient id="linear-gradient-116" x1="6147.32" y1="765.02" x2="6226.7" y2="843.92" gradientTransform="matrix(-0.98, 0.19, 0.19, 0.98, 7353.52, -1568.56)" xlink:href="#linear-gradient"/><linearGradient id="linear-gradient-117" x1="5599.83" y1="3045.92" x2="5682.68" y2="3251.38" gradientTransform="translate(7901.51 -786.84) rotate(143.53)" xlink:href="#linear-gradient"/><linearGradient id="linear-gradient-118" x1="5602.13" y1="2980.7" x2="5697.3" y2="3216.7" gradientTransform="translate(7901.51 -786.84) rotate(143.53)" xlink:href="#linear-gradient"/><linearGradient id="linear-gradient-119" x1="6017.98" y1="512.87" x2="6175.09" y2="669.05" gradientTransform="translate(7562.39 -789.33) rotate(166.74)" xlink:href="#linear-gradient"/><linearGradient id="linear-gradient-120" x1="5993.58" y1="451.94" x2="6174.5" y2="631.78" gradientTransform="translate(7562.39 -789.33) rotate(166.74)" xlink:href="#linear-gradient"/><linearGradient id="linear-gradient-121" x1="-6778.59" y1="1890.61" x2="-6816.42" y2="1947.66" gradientTransform="matrix(0.91, -0.42, -0.42, -0.91, 8321.69, -992.52)" xlink:href="#linear-gradient"/><linearGradient id="linear-gradient-122" x1="6234.64" y1="511.04" x2="6283.18" y2="559.3" gradientTransform="translate(7562.39 -789.33) rotate(166.74)" xlink:href="#linear-gradient"/><linearGradient id="linear-gradient-123" x1="-6828.17" y1="1147.81" x2="-6890.55" y2="1223.19" gradientTransform="matrix(0.95, -0.32, -0.32, -0.95, 8245.11, -927.09)" xlink:href="#linear-gradient"/><linearGradient id="linear-gradient-124" x1="6210.93" y1="458.52" x2="6280.52" y2="527.7" gradientTransform="translate(7562.39 -789.33) rotate(166.74)" xlink:href="#linear-gradient"/><linearGradient id="linear-gradient-125" x1="-6829.02" y1="783.23" x2="-6879.48" y2="837.95" gradientTransform="matrix(0.96, -0.27, -0.27, -0.96, 8208.03, -898.91)" xlink:href="#linear-gradient"/><linearGradient id="linear-gradient-126" x1="6202.85" y1="444.35" x2="6255.81" y2="496.99" gradientTransform="translate(7562.39 -789.33) rotate(166.74)" xlink:href="#linear-gradient"/><linearGradient id="linear-gradient-127" x1="-6807.45" y1="921.39" x2="-6884.45" y2="1010.58" gradientTransform="matrix(0.95, -0.3, -0.3, -0.95, 8233.88, -917.85)" xlink:href="#linear-gradient"/><linearGradient id="linear-gradient-128" x1="6174.56" y1="371.84" x2="6258.31" y2="455.1" gradientTransform="translate(7562.39 -789.33) rotate(166.74)" xlink:href="#linear-gradient"/><linearGradient id="linear-gradient-129" x1="5710.38" y1="2729.62" x2="5926.37" y2="3265.23" gradientTransform="translate(7901.51 -786.84) rotate(143.53)" xlink:href="#linear-gradient"/></defs><path class="cls-1" d="M26.85,992.21a181.14,181.14,0,0,0-58.36-7.92c-30.7.86-85.57-6.73-85.57-6.73C-52,1002.07-3.34,1001,20.05,998.21A65.91,65.91,0,0,0,26.85,992.21Z"/><path class="cls-2" d="M16.87,970s-127.23,10.68-226.16-55.08c0,0,54.92,33.48,118.72,35.39S5.6,962.3,16.87,970Z"/><path class="cls-3" d="M24.39,994.57C12.12,993.44-6,991.66-23,991.63c-36.38-.07-93.56-13.76-93.56-13.76C-50,1002.25-3.23,1001.45,19.61,998.55A57.27,57.27,0,0,0,24.39,994.57Z"/><path class="cls-4" d="M17.42,970.3S-109.8,981-208.74,915.22c0,0,38.59,28.32,126.3,41.77C-32.06,964.72-9.36,967.32,17.42,970.3Z"/><path class="cls-5" d="M.53,946.8s-160.35-14-231.69-110.22c0,0,44.14,51.8,128.48,77.46C-36,934.33.53,946.8.53,946.8Z"/><path class="cls-6" d="M18.76,966.1s70.1-109.93,61.55-231c0,0,2.18,65.73-26.8,124.35S17.61,952.22,18.76,966.1Z"/><path class="cls-7" d="M18.75,966.75s70.11-109.93,61.56-231c0,0,5.61,48.49-25,134.26C37.73,919.33,29.06,941.1,18.75,966.75Z"/><path class="cls-8" d="M5,942.38S85.16,799,49.13,683.7c0,0,15.14,66.13-17.55,150.44S5,942.38,5,942.38Z"/><path class="cls-9" d="M5,943S85.16,799,49.13,683.7c0,0,16.12,66.95-11.47,153.11C15.86,904.9,5,943,5,943Z"/><path class="cls-10" d="M-20.71,909.53S45.08,792.35,32.71,680.4c0,0-10.67,86-35.48,149.56C-18.62,870.57-20.71,909.53-20.71,909.53Z"/><path class="cls-11" d="M-20.81,910.17S45.08,792.35,32.71,680.4c0,0,.12,66.62-28.73,152.39C-7,865.49-20.81,910.17-20.81,910.17Z"/><path class="cls-12" d="M-5.53,606.66s32.12,130.8-28.31,271.17c0,0-2.57-57.49,17.07-126.05S-5.53,606.66-5.53,606.66Z"/><path class="cls-13" d="M-5.53,606.66s32,131.45-28.39,271.81c0,0,12.8-60.49,24-119C3.59,689.45-5.53,606.66-5.53,606.66Z"/><path class="cls-14" d="M29.73,984.48c-.11-1.27-.19-2.55-.26-3.8,0-.55,0-1.61,0-2.69-.08-.39-.17-.78-.29-1.17a4.77,4.77,0,0,1-.73-1.92,14.53,14.53,0,0,0-.86-1.58,2.64,2.64,0,0,1-.15-.29,4.81,4.81,0,0,1-.88-1.75C-188.27,659.79-186.92,397.09-186.92,397.09c0,4.19-1.85,5.76-1.8,10C-186.21,642.79-47.63,883.55,25.11,993.9c.72-.68,1.41-1.36,2.08-2a36.57,36.57,0,0,0,1.89-4c.17-.41.31-.83.45-1.24C29.57,986,29.65,985.25,29.73,984.48Z"/><path class="cls-15" d="M44.24,215.05S-11.84,346.38-71.5,408.22c0,0,22-45.85,42.31-76.49S23.53,259,44.24,215.05Z"/><path class="cls-16" d="M44.24,215.05S-11.84,346.38-71.5,408.22c0,0,28.16-36.68,48.17-71.44C-5,304.93,23.53,259,44.24,215.05Z"/><path class="cls-17" d="M41.08,171S13.23,288.3-52.14,350.71c0,0,5.15-13.46,23.5-46.27S22.23,236.78,41.08,171Z"/><path class="cls-18" d="M41.08,171S13.23,288.3-52.14,350.71c0,0,14.36-15.1,32.71-47.91S22.23,236.78,41.08,171Z"/><path class="cls-19" d="M-52.74,350.84s9.16-99.45,57.47-195.65C4.73,155.19-21.11,290.54-52.74,350.84Z"/><path class="cls-20" d="M-52.74,350.84s9.16-99.45,57.47-195.65C4.73,155.19-35.38,273.21-52.74,350.84Z"/><path class="cls-21" d="M-91.42,978.16s58.09-23.95,112.91-109.95c0,0-39.94,40.44-65.24,59.06C-73.75,949.36-89.68,974.6-91.42,978.16Z"/><path class="cls-22" d="M-91.42,978.16s54.9-20.47,112.64-109.36c0,0-38.26,46.7-67.62,69.61C-65.35,953.2-84,971.91-91.42,978.16Z"/><path class="cls-23" d="M-93.47,946s109-71.55,150.79-185.44c0,0-25,60.84-75.4,102.44S-88.82,932.91-93.47,946Z"/><path class="cls-24" d="M-93.74,946.63s109-71.55,150.8-185.44c0,0-14.76,46.52-77.82,112.22C-57,911.15-73.82,927.46-93.74,946.63Z"/><path class="cls-25" d="M-96.26,918.78S35.57,820.84,50,700.89c0,0-13.29,66.52-77.66,130S-96.26,918.78-96.26,918.78Z"/><path class="cls-26" d="M-96.58,919.34S35.57,820.84,50,700.89c0,0-12.73,67.67-73.2,135C-71,889-96.58,919.34-96.58,919.34Z"/><path class="cls-27" d="M-106.29,878.26s108-79.92,142.63-187.12c0,0-45,74.05-93.66,121.89C-88.41,843.58-106.29,878.26-106.29,878.26Z"/><path class="cls-28" d="M-106.65,878.81s108.39-80.47,143-187.67c0,0-27.2,60.82-88.66,127.24C-75.76,843.7-106.65,878.81-106.65,878.81Z"/><path class="cls-29" d="M31.67,608.21S7.37,740.69-105.27,844c0,0,21.21-53.49,67.22-108S31.67,608.21,31.67,608.21Z"/><path class="cls-30" d="M31.67,608.21S7,741.24-105.61,844.52c0,0,36.46-49.94,70.68-98.67C6.06,687.47,31.67,608.21,31.67,608.21Z"/><path class="cls-31" d="M18.06,581.8s-15.6,113.33-127.6,224c0,0,18.31-50.2,48.67-85.79S-1.72,647.47,18.06,581.8Z"/><path class="cls-32" d="M18.06,581.8s-15.6,113.33-127.6,224c0,0,25-43.93,55.38-79.52S-1.72,647.47,18.06,581.8Z"/><path class="cls-33" d="M14.2,551.3S-20.56,699.08-111.07,759c0,0,17.95-40.86,60-90S14.2,551.3,14.2,551.3Z"/><path class="cls-34" d="M13.83,551.84s-34.76,147.78-125.27,207.7c0,0,18.5-22.11,56.57-70C-3.93,625.37,13.83,551.84,13.83,551.84Z"/><path class="cls-35" d="M24.42,525.77s-52.58,121.45-139,188.63c0,0,14.54-36.23,58.73-83S14,545.44,24.42,525.77Z"/><path class="cls-36" d="M24,526.26S-28.59,647.72-115,714.89c0,0,27-33.32,64.32-77.06C-8.92,588.88,13.55,545.93,24,526.26Z"/><path class="cls-37" d="M42.11,473S-7.55,606.56-113.72,670.84c0,0,13.72-27.58,46.58-56.85S10.29,531.51,42.11,473Z"/><path class="cls-38" d="M41.65,473.41S-8,607-114.18,671.3c0,0,19.74-22.85,52.92-51.76C-15.3,579.5,9.82,532,41.65,473.41Z"/><path class="cls-39" d="M55.66,407.56s-59.89,163.19-168.88,232c0,0,23.07-40.33,48.25-62.77S15.32,493,55.66,407.56Z"/><path class="cls-40" d="M55.19,408S-4.7,571.2-113.69,640c0,0,30.33-34.35,55.5-56.79S14.85,493.46,55.19,408Z"/><path class="cls-41" d="M44.11,365.28S18,504.91-110.5,602.54c0,0-1.59-9.89,47.71-64.15S13.07,447.78,44.11,365.28Z"/><path class="cls-42" d="M44.11,365.28S17.46,505.32-111,603c0,0,4.68-5.53,54-59.79S22.23,437.61,44.11,365.28Z"/><path class="cls-43" d="M29.8,369.66S-43,527.74-102.72,566.44c0,0,10.86-32.15,49.85-77.92S-3.82,429.32,29.8,369.66Z"/><path class="cls-44" d="M29.8,369.66S-43,527.74-102.72,566.44c0,0,11.61-17.72,47-60.89C-16.38,457.52-3.82,429.32,29.8,369.66Z"/><path class="cls-45" d="M40.46,296.13s-77.69,194-142.11,244.66c0,0,32.38-61.21,65.38-104.45S40.46,296.13,40.46,296.13Z"/><path class="cls-46" d="M40.46,296.13s-77.69,194-142.11,244.66c0,0,26.52-35.78,61.76-89.4C-10,406,40.46,296.13,40.46,296.13Z"/><path class="cls-47" d="M50.11,228.67S-17.46,400.92-86.48,464.56c0,0,11.83-27.3,42.81-74.8S21.65,287.84,50.11,228.67Z"/><path class="cls-48" d="M50.11,228.67S-17.46,400.92-86.48,464.56c0,0,16.61-23.44,47.59-70.94S21.65,287.84,50.11,228.67Z"/><path class="cls-49" d="M31.26,285.39S-1.94,398.33-97.34,508.32c0,0,19.42-38.62,43.75-79.21S5.66,356.81,31.26,285.39Z"/><path class="cls-50" d="M31.26,285.39S-1.94,398.33-97.34,508.32c0,0,27.37-36.19,51.71-76.77S5.66,356.81,31.26,285.39Z"/><path class="cls-51" d="M8.25-15.95c1.05,0,2.12,0,3.2,0a5.8,5.8,0,0,1,.85,0c5.66.06,12.9.18,18.92,2.23a50.1,50.1,0,0,0,5.26-2.1S-23.09-33-116.09,2.06c0,0,54.86-7.58,85.56-6.73A184.45,184.45,0,0,0,5-7.16C2.11-9.82,3.2-16,8.25-15.95Z"/><path class="cls-52" d="M17.85,9.64S-109.37-1-208.31,64.72c0,0,54.92-33.49,118.73-35.4S6.58,17.33,17.85,9.64Z"/><path class="cls-53" d="M1,33.14S-158.84,46.81-230.17,143c0,0,44-50.5,129.81-70.78S1,33.14,1,33.14Z"/><path class="cls-54" d="M8.25-15.95c1.06,0,2.14,0,3.23,0a7.08,7.08,0,0,1,.82,0A87.08,87.08,0,0,1,26.05-15c4.36-.4,8-.71,10.43-.81,0,0-55-18-152,17.57,0,0,57.19-13.69,93.56-13.75,8.63,0,17.53-.49,25.82-1.09A4.5,4.5,0,0,1,8.25-15.95Z"/><path class="cls-55" d="M18.4,9.33S-108.82-1.36-207.76,64.41c0,0,38.6-28.32,126.31-41.78C-31.07,14.9-8.37,12.3,18.4,9.33Z"/><path class="cls-56" d="M1.51,32.83S-158.84,46.81-230.17,143c0,0,44.14-51.79,128.47-77.46C-35,45.3,1.51,32.83,1.51,32.83Z"/><path class="cls-57" d="M19.74,13.53S89.85,123.46,81.3,244.47c0,0,2.17-65.73-26.8-124.34S18.6,27.4,19.74,13.53Z"/><path class="cls-58" d="M19.74,12.88S89.85,122.81,81.3,243.82c0,0,5.6-48.48-25-134.25C38.72,60.3,30.05,38.52,19.74,12.88Z"/><path class="cls-59" d="M6,37.25S86.14,180.6,50.11,295.92c0,0,15.14-66.13-17.55-150.44S6,37.25,6,37.25Z"/><path class="cls-60" d="M6,36.6s80.18,144,44.15,259.32c0,0,16.12-66.94-11.46-153.1C16.85,74.72,6,36.6,6,36.6Z"/><path class="cls-61" d="M-19.73,70.09S46.06,187.27,33.69,299.23c0,0-10.67-86-35.48-149.56C-17.63,109.05-19.73,70.09-19.73,70.09Z"/><path class="cls-62" d="M-19.83,69.45S46.06,187.27,33.69,299.23c0,0,.12-66.62-28.73-152.39C-6,114.13-19.83,69.45-19.83,69.45Z"/><path class="cls-63" d="M-4.55,373s32.12-130.8-28.3-271.16c0,0-2.58,57.49,17.06,126.05S-4.55,373-4.55,373Z"/><path class="cls-64" d="M-4.55,373s32-131.44-28.38-271.81c0,0,12.79,60.5,24,119C4.58,290.17-4.55,373-4.55,373Z"/><path class="cls-65" d="M29.44,5.64l0-.07a5.54,5.54,0,0,1,.23-.89c-.06-2.29-.48-4.52-2.1-6.13a15,15,0,0,0-7.49-3.67C-54,109-185.3,343.15-187.74,572.58c0,4.2,1.76,5.76,1.8,9.95C-185.94,582.53-187.3,318.31,29.44,5.64Z"/><path class="cls-66" d="M1372.37,992.09a180.57,180.57,0,0,1,58.36-7.92c30.7.85,85.57-6.73,85.57-6.73-65,24.51-113.73,23.48-137.13,20.65A68.36,68.36,0,0,1,1372.37,992.09Z"/><path class="cls-67" d="M1382.36,969.86s127.22,10.69,226.16-55.08c0,0-54.93,33.49-118.73,35.4S1393.62,962.17,1382.36,969.86Z"/><path class="cls-68" d="M1399.25,946.37s159.8-13.68,231.13-109.91c0,0-44.05,50.5-129.82,70.78S1399.25,946.37,1399.25,946.37Z"/><path class="cls-69" d="M1374.83,994.45c12.27-1.13,30.35-2.92,47.36-3,36.37-.06,93.55-13.75,93.55-13.75-66.5,24.37-113.29,23.58-136.12,20.67A55.73,55.73,0,0,1,1374.83,994.45Z"/><path class="cls-70" d="M1381.8,970.17S1509,980.86,1608,915.09c0,0-38.59,28.32-126.3,41.78C1431.28,964.6,1408.58,967.2,1381.8,970.17Z"/><path class="cls-71" d="M1398.69,946.67s160.36-14,231.69-110.21c0,0-44.14,51.79-128.47,77.46C1435.26,934.2,1398.69,946.67,1398.69,946.67Z"/><path class="cls-72" d="M1380.47,966S1310.36,856,1318.91,735c0,0-2.17,65.73,26.8,124.34S1381.61,952.1,1380.47,966Z"/><path class="cls-73" d="M1380.47,966.62s-70.11-109.93-61.56-230.94c0,0-5.61,48.48,25,134.25C1361.49,919.2,1370.16,941,1380.47,966.62Z"/><path class="cls-74" d="M1394.18,942.25s-80.12-143.35-44.09-258.67c0,0-15.14,66.13,17.55,150.44S1394.18,942.25,1394.18,942.25Z"/><path class="cls-75" d="M1394.25,942.9s-80.19-144-44.16-259.32c0,0-16.12,66.94,11.47,153.1C1383.36,904.78,1394.25,942.9,1394.25,942.9Z"/><path class="cls-76" d="M1419.93,909.41s-65.78-117.18-53.42-229.14c0,0,10.68,86,35.49,149.56C1417.84,870.45,1419.93,909.41,1419.93,909.41Z"/><path class="cls-77" d="M1420,910.05s-65.89-117.82-53.53-229.78c0,0-.11,66.62,28.74,152.4C1406.25,865.37,1420,910.05,1420,910.05Z"/><path class="cls-78" d="M1404.75,606.54s-32.12,130.8,28.31,271.16c0,0,2.57-57.49-17.07-126S1404.75,606.54,1404.75,606.54Z"/><path class="cls-79" d="M1404.75,606.54s-32,131.44,28.39,271.81c0,0-12.79-60.5-24-119C1395.63,689.33,1404.75,606.54,1404.75,606.54Z"/><path class="cls-80" d="M1369.49,984.36c.11-1.28.2-2.56.26-3.8,0-.55,0-1.62,0-2.7.08-.39.18-.77.29-1.16a4.75,4.75,0,0,0,.73-1.93,14.42,14.42,0,0,1,.86-1.57l.16-.29a5.15,5.15,0,0,0,.88-1.75C1587.49,659.67,1586.14,397,1586.14,397c0,4.19,1.85,5.75,1.81,9.95-2.51,235.75-141.1,476.51-213.84,586.86-.71-.68-1.41-1.36-2.08-2a37.35,37.35,0,0,1-1.89-3.94c-.17-.42-.31-.83-.44-1.25C1369.66,985.87,1369.58,985.13,1369.49,984.36Z"/><path class="cls-81" d="M1353.93,212.43S1410,343.76,1469.66,405.6c0,0-22-45.85-42.3-76.49S1374.64,256.42,1353.93,212.43Z"/><path class="cls-82" d="M1353.93,212.43S1410,343.76,1469.66,405.6c0,0-28.16-36.67-48.16-71.44C1403.17,302.32,1374.64,256.42,1353.93,212.43Z"/><path class="cls-83" d="M1357.09,168.33s27.85,117.36,93.22,179.76c0,0-5.15-13.45-23.5-46.27S1375.93,234.17,1357.09,168.33Z"/><path class="cls-84" d="M1357.09,168.33s27.85,117.36,93.22,179.76c0,0-14.36-15.09-32.71-47.91S1375.93,234.17,1357.09,168.33Z"/><path class="cls-85" d="M1450.91,348.23s-9.16-99.45-57.47-195.65C1393.44,152.58,1419.28,287.93,1450.91,348.23Z"/><path class="cls-86" d="M1450.91,348.23s-9.16-99.45-57.47-195.65C1393.44,152.58,1433.55,270.59,1450.91,348.23Z"/><path class="cls-87" d="M1489.59,975.54s-58.09-23.95-112.91-109.95c0,0,39.94,40.45,65.24,59.07C1471.92,946.74,1487.85,972,1489.59,975.54Z"/><path class="cls-88" d="M1489.59,975.54s-54.9-20.47-112.64-109.35c0,0,38.26,46.7,67.62,69.61C1463.52,950.59,1482.18,969.29,1489.59,975.54Z"/><path class="cls-89" d="M1491.64,943.42s-109-71.55-150.79-185.44c0,0,25,60.85,75.4,102.44S1487,930.3,1491.64,943.42Z"/><path class="cls-90" d="M1491.9,944s-109-71.55-150.79-185.44c0,0,14.76,46.53,77.82,112.23C1455.16,908.54,1472,924.85,1491.9,944Z"/><path class="cls-91" d="M1494.42,916.17s-131.82-97.94-146.21-217.9c0,0,13.29,66.53,77.66,130S1494.42,916.17,1494.42,916.17Z"/><path class="cls-92" d="M1494.75,916.73s-132.15-98.5-146.54-218.46c0,0,12.73,67.67,73.2,135C1469.2,886.41,1494.75,916.73,1494.75,916.73Z"/><path class="cls-93" d="M1504.46,875.65s-108-79.93-142.63-187.12c0,0,45,74,93.66,121.88C1486.58,841,1504.46,875.65,1504.46,875.65Z"/><path class="cls-94" d="M1504.81,876.19s-108.38-80.47-143-187.66c0,0,27.19,60.82,88.66,127.23C1473.92,841.08,1504.81,876.19,1504.81,876.19Z"/><path class="cls-95" d="M1366.5,605.6s24.3,132.47,136.94,235.75c0,0-21.21-53.5-67.22-108S1366.5,605.6,1366.5,605.6Z"/><path class="cls-96" d="M1366.5,605.6s24.64,133,137.28,236.3c0,0-36.46-49.93-70.68-98.67C1392.1,684.85,1366.5,605.6,1366.5,605.6Z"/><path class="cls-97" d="M1380.11,579.18s15.6,113.33,127.6,224c0,0-18.31-50.2-48.67-85.8S1399.89,644.85,1380.11,579.18Z"/><path class="cls-98" d="M1380.11,579.18s15.6,113.33,127.6,224c0,0-25-43.93-55.38-79.53S1399.89,644.85,1380.11,579.18Z"/><path class="cls-99" d="M1384,548.69s34.76,147.78,125.26,207.7c0,0-17.94-40.86-60-90S1384,548.69,1384,548.69Z"/><path class="cls-100" d="M1384.34,549.22S1419.1,697,1509.6,756.93c0,0-18.49-22.12-56.56-70C1402.1,622.75,1384.34,549.22,1384.34,549.22Z"/><path class="cls-101" d="M1373.75,523.16s52.58,121.45,139,188.63c0,0-14.54-36.24-58.74-83S1384.19,542.82,1373.75,523.16Z"/><path class="cls-102" d="M1374.17,523.65s52.59,121.45,139,188.63c0,0-27-33.32-64.31-77.06C1407.09,586.27,1384.62,543.31,1374.17,523.65Z"/><path class="cls-103" d="M1356.06,470.34S1405.71,604,1511.88,668.22c0,0-13.71-27.58-46.58-56.85S1387.88,528.89,1356.06,470.34Z"/><path class="cls-104" d="M1356.52,470.79s49.66,133.62,155.82,197.89c0,0-19.73-22.85-52.91-51.75C1413.47,576.88,1388.34,529.35,1356.52,470.79Z"/><path class="cls-105" d="M1342.51,405s59.89,163.18,168.88,232c0,0-23.07-40.33-48.25-62.77S1382.85,490.4,1342.51,405Z"/><path class="cls-106" d="M1343,405.4s59.88,163.18,168.88,232c0,0-30.33-34.34-55.5-56.78S1383.32,490.85,1343,405.4Z"/><path class="cls-107" d="M1354.06,362.66s26.15,139.63,154.61,237.27c0,0,1.59-9.89-47.71-64.16S1385.1,445.16,1354.06,362.66Z"/><path class="cls-108" d="M1354.06,362.66s26.65,140,155.1,237.69c0,0-4.68-5.53-54-59.8S1375.94,435,1354.06,362.66Z"/><path class="cls-109" d="M1368.36,367.05s72.82,158.07,132.53,196.77c0,0-10.86-32.14-49.85-77.91S1402,426.71,1368.36,367.05Z"/><path class="cls-110" d="M1368.36,367.05s72.82,158.07,132.53,196.77c0,0-11.61-17.72-47-60.89C1414.55,454.91,1402,426.71,1368.36,367.05Z"/><path class="cls-111" d="M1357.71,293.52s77.69,194,142.11,244.66c0,0-32.38-61.22-65.38-104.45S1357.71,293.52,1357.71,293.52Z"/><path class="cls-112" d="M1357.71,293.52s77.69,194,142.11,244.66c0,0-26.52-35.79-61.76-89.4C1408.19,403.33,1357.71,293.52,1357.71,293.52Z"/><path class="cls-113" d="M1348.06,226.05s67.57,172.26,136.59,235.89c0,0-11.83-27.29-42.81-74.8S1376.52,285.22,1348.06,226.05Z"/><path class="cls-114" d="M1348.06,226.05s67.57,172.26,136.59,235.89c0,0-16.61-23.43-47.59-70.93S1376.52,285.22,1348.06,226.05Z"/><path class="cls-115" d="M1366.91,282.77s33.2,112.94,128.6,222.93c0,0-19.42-38.62-43.76-79.2S1392.51,354.2,1366.91,282.77Z"/><path class="cls-116" d="M1366.91,282.77s33.2,112.94,128.6,222.93c0,0-27.38-36.18-51.71-76.77S1392.51,354.2,1366.91,282.77Z"/><path class="cls-117" d="M1380.32,7S1507.54-3.66,1606.48,62.1c0,0-54.93-33.48-118.73-35.39S1391.58,14.71,1380.32,7Z"/><path class="cls-118" d="M1397.21,30.52S1557,44.19,1628.34,140.43c0,0-44-50.5-129.81-70.78S1397.21,30.52,1397.21,30.52Z"/><path class="cls-119" d="M1379.76,6.71S1507-4,1605.93,61.79c0,0-38.6-28.32-126.31-41.77C1429.24,12.29,1406.54,9.69,1379.76,6.71Z"/><path class="cls-120" d="M1396.65,30.21s160.36,14,231.69,110.22c0,0-44.14-51.8-128.47-77.46C1433.22,42.68,1396.65,30.21,1396.65,30.21Z"/><path class="cls-121" d="M1378.43,10.91s-70.11,109.93-61.56,231c0,0-2.17-65.73,26.8-124.35S1379.57,24.79,1378.43,10.91Z"/><path class="cls-122" d="M1378.43,10.26s-70.11,109.93-61.56,231c0,0-5.6-48.49,25-134.26C1359.45,57.68,1368.12,35.91,1378.43,10.26Z"/><path class="cls-123" d="M1392.14,34.63S1312,178,1348.05,293.31c0,0-15.14-66.13,17.55-150.44S1392.14,34.63,1392.14,34.63Z"/><path class="cls-124" d="M1392.21,34S1312,178,1348.05,293.31c0,0-16.12-66.95,11.47-153.11C1381.32,72.11,1392.21,34,1392.21,34Z"/><path class="cls-125" d="M1417.9,67.48s-65.79,117.17-53.42,229.13c0,0,10.67-86,35.48-149.56C1415.8,106.44,1417.9,67.48,1417.9,67.48Z"/><path class="cls-126" d="M1418,66.84s-65.89,117.81-53.52,229.77c0,0-.12-66.62,28.73-152.39C1404.21,111.52,1418,66.84,1418,66.84Z"/><path class="cls-127" d="M1402.72,370.35s-32.13-130.8,28.3-271.17c0,0,2.57,57.49-17.07,126S1402.72,370.35,1402.72,370.35Z"/><path class="cls-128" d="M1402.72,370.35s-32-131.45,28.38-271.81c0,0-12.79,60.49-24,119C1393.59,287.56,1402.72,370.35,1402.72,370.35Z"/><path class="cls-129" d="M1368.73,3l0-.07a4.5,4.5,0,0,0-.24-.89c.06-2.3.48-4.52,2.11-6.13a14.89,14.89,0,0,1,7.49-3.68c74.08,114.1,205.41,348.28,207.85,577.71,0,4.19-1.76,5.76-1.8,9.95C1584.11,579.92,1585.47,315.7,1368.73,3Z"/></svg>