<svg id="Layer_1" data-name="Layer 1" xmlns="http://www.w3.org/2000/svg"  xmlns:xlink="http://www.w3.org/1999/xlink" viewBox="0 0 1024 768"><defs><style>.cls-1{fill:url(#linear-gradient);filter:url(#luminosity-noclip);}.cls-2{fill:url(#linear-gradient-2);filter:url(#luminosity-noclip-2);}.cls-3{opacity:0.7;}.cls-4{fill:url(#linear-gradient-3);}.cls-5{fill:url(#linear-gradient-4);}.cls-6{fill:#1c1f23;}.cls-7{fill:url(#linear-gradient-5);}.cls-8{fill:#000003;stroke:#323232;stroke-miterlimit:10;}.cls-9{fill:#e8e9ea;}.cls-10{fill:url(#linear-gradient-6);}.cls-11{fill:url(#linear-gradient-7);}.cls-12{fill:url(#linear-gradient-8);}.cls-13{mask:url(#mask);}.cls-14{fill:#fff;opacity:0.21;}.cls-15{mask:url(#mask-2);}.cls-16{fill:#b9babd;opacity:0.55;}</style><linearGradient id="linear-gradient" x1="710.5" y1="501.05" x2="710.5" y2="168.91" gradientUnits="userSpaceOnUse"><stop offset="0"/><stop offset="1" stop-color="#fff"/></linearGradient><linearGradient id="linear-gradient-2" x1="508.26" y1="617.39" x2="508.26" y2="629.47" gradientUnits="userSpaceOnUse"><stop offset="0" stop-color="#fff"/><stop offset="1"/></linearGradient><linearGradient id="linear-gradient-3" x1="162.61" y1="360.72" x2="869.08" y2="360.72" gradientUnits="userSpaceOnUse"><stop offset="0.05" stop-color="#8c8c8c"/><stop offset="0.22" stop-color="#a0a0a0"/><stop offset="0.4" stop-color="#787878"/><stop offset="0.64" stop-color="#a0a0a0"/><stop offset="0.84" stop-color="#787878"/><stop offset="1" stop-color="#a0a0a0"/></linearGradient><linearGradient id="linear-gradient-4" x1="162.29" y1="360.72" x2="868.76" y2="360.72" xlink:href="#linear-gradient-3"/><linearGradient id="linear-gradient-5" x1="511.41" y1="591.67" x2="511.41" y2="581.17" gradientUnits="userSpaceOnUse"><stop offset="0" stop-color="#2b2c2e"/><stop offset="0.59" stop-color="#272b30"/><stop offset="0.79" stop-color="#0a0e11"/><stop offset="1" stop-color="#070b0e"/></linearGradient><linearGradient id="linear-gradient-6" x1="81.43" y1="599.79" x2="939.79" y2="599.79" gradientUnits="userSpaceOnUse"><stop offset="0" stop-color="#828387"/><stop offset="0.01" stop-color="#d0d1d3"/><stop offset="0.03" stop-color="#929397"/><stop offset="0.05" stop-color="#d1d2d5"/><stop offset="0.51" stop-color="#f3f3f4"/><stop offset="0.94" stop-color="#d1d2d5"/><stop offset="0.97" stop-color="#929397"/><stop offset="0.99" stop-color="#e6e6e6"/><stop offset="1" stop-color="#d0d1d3"/><stop offset="1" stop-color="#828387"/></linearGradient><linearGradient id="linear-gradient-7" x1="450.78" y1="596.92" x2="570.45" y2="596.92" gradientUnits="userSpaceOnUse"><stop offset="0" stop-color="#95969b"/><stop offset="0.08" stop-color="#d8d9db"/><stop offset="0.55" stop-color="#d7d8db"/><stop offset="0.92" stop-color="#d8d9db"/><stop offset="1" stop-color="#95969b"/></linearGradient><linearGradient id="linear-gradient-8" x1="510.61" y1="618.86" x2="510.61" y2="607.75" gradientUnits="userSpaceOnUse"><stop offset="0" stop-color="#2b2c2e"/><stop offset="0.15" stop-color="#3c3d40"/><stop offset="0.37" stop-color="#5f6064"/><stop offset="0.75" stop-color="#88898d"/><stop offset="1" stop-color="#909195"/></linearGradient><filter id="luminosity-noclip" x="552" y="118" width="317" height="482" filterUnits="userSpaceOnUse" color-interpolation-filters="sRGB"><feFlood flood-color="#fff" result="bg"/><feBlend in="SourceGraphic" in2="bg"/></filter><mask id="mask" x="552" y="118" width="317" height="482" maskUnits="userSpaceOnUse"><rect class="cls-1" x="552" y="118" width="317" height="482"/></mask><filter id="luminosity-noclip-2" x="72.63" y="612.51" width="871.25" height="21.54" filterUnits="userSpaceOnUse" color-interpolation-filters="sRGB"><feFlood flood-color="#fff" result="bg"/><feBlend in="SourceGraphic" in2="bg"/></filter><mask id="mask-2" x="72.63" y="612.51" width="871.25" height="21.54" maskUnits="userSpaceOnUse"><rect class="cls-2" x="72.63" y="612.51" width="871.25" height="21.54"/></mask></defs><g class="cls-3"><path class="cls-4" d="M836.54,124.89H186.29a22.06,22.06,0,0,0-22,22V581.55a15,15,0,0,0,15,15H843.54a15,15,0,0,0,15-15V146.89A22.07,22.07,0,0,0,836.54,124.89Z"/><path class="cls-5" d="M843.54,598.55H179.29a17,17,0,0,1-17-17V146.89a24,24,0,0,1,24-24H836.54a24,24,0,0,1,24,24V581.55A17,17,0,0,1,843.54,598.55ZM186.29,126.89a20,20,0,0,0-20,20V581.55a13,13,0,0,0,13,13H843.54a13,13,0,0,0,13-13V146.89a20,20,0,0,0-20-20Z"/></g><rect class="cls-6" x="164.29" y="151.61" width="694.24" height="444.94" rx="15"/><rect class="cls-7" x="236.16" y="581.17" width="550.5" height="10.5"/><path class="cls-8" d="M836.54,124.89H186.29a22.06,22.06,0,0,0-22,22V573.12a8.08,8.08,0,0,0,8.06,8H850.48a8.08,8.08,0,0,0,8.06-8V146.89A22.07,22.07,0,0,0,836.54,124.89Z"/><rect class="cls-9" x="183.61" y="151.6" width="655.47" height="412.48"/><rect class="cls-10" x="81.43" y="591.82" width="858.36" height="15.94"/><path class="cls-11" d="M562.27,602H458.41a9.31,9.31,0,0,1-5.67-4,10,10,0,0,1-1.95-6.22H570.45s-.44,4.22-2.76,6.83A10.55,10.55,0,0,1,562.27,602Z"/><path class="cls-12" d="M81.43,607.75s4.93,4,18.87,8.06c11.61,3.34,31.51,3.05,31.51,3.05H889.42s19.9.29,31.5-3.05c13.94-4,18.87-8.06,18.87-8.06Z"/><g class="cls-13"><path class="cls-14" d="M836.54,124.89H570.62L753.54,581.17h96.94a8.08,8.08,0,0,0,8.06-8V146.89A22.07,22.07,0,0,0,836.54,124.89Z"/></g><g class="cls-15"><path class="cls-16" d="M81.43,630s4.93-4.06,18.87-8.07c11.61-3.33,31.51-3,31.51-3H889.42s19.9-.29,31.5,3c13.94,4,18.87,8.07,18.87,8.07Z"/></g> <text fill="#237a57" id="stext" style="font-size:2.8rem; font-weight:600; font-family: Source Sans Pro, Helvetica, sans-serif;" x="20%" y="35%">
</text>
<text fill="#237a57" id="stext2" style="font-size:2.5rem; font-weight:600; font-family: Source Sans Pro, Helvetica, sans-serif;" x="20%" y="55%">
</text></svg>