<svg xmlns="http://www.w3.org/2000/svg" xmlns:xlink="http://www.w3.org/1999/xlink" version="1.1" x="0px" y="0px" viewBox="0 0 100 125" enable-background="new 0 0 100 100" xml:space="preserve"><g fill="rgb(73, 110, 15)"><path d="M 27.3 72 H 7.5 c -0.2 0 -0.4 -0.2 -0.4 -0.4 V 24.6 c 0 -0.2 0.2 -0.4 0.4 -0.4 h 26.5 c 0.2 0 0.4 0.2 0.4 0.4 V 51.6 h 1.9 V 19.2 c 0 -2.2 -1.8 -4 -4 -4 h -0.9 c -0.1 -0.1 -0.2 -0.2 -0.3 -0.2 h -3.4 c -0.1 0 -0.3 0.1 -0.3 0.2 H 9.1 c -2.2 0 -4 1.8 -4 4 v 5.1 c -0.1 0.1 -0.2 0.2 -0.2 0.3 v 1.3 c 0 0.1 0.1 0.3 0.2 0.3 v 1.5 c -0.1 0.1 -0.2 0.2 -0.2 0.3 v 1.3 c 0 0.1 0.1 0.3 0.2 0.3 v 47.2 c 0 2.2 1.8 4 4 4 h 18.2 V 72 z M 20.6 17.8 c 0.3 0 0.6 0.3 0.6 0.6 c 0 0.3 -0.3 0.6 -0.6 0.6 c -0.3 0 -0.6 -0.3 -0.6 -0.6 C 20 18.1 20.3 17.8 20.6 17.8 z M 18.5 20.6 h 4.5 c 0.2 0 0.4 0.2 0.4 0.4 c 0 0.2 -0.2 0.4 -0.4 0.4 h -4.5 c -0.2 0 -0.4 -0.2 -0.4 -0.4 C 18.1 20.8 18.3 20.6 18.5 20.6 z M 20.9 79.4 c -1.7 0 -3.1 -1.4 -3.1 -3.1 s 1.4 -3.1 3.1 -3.1 c 1.7 0 3.1 1.4 3.1 3.1 S 22.7 79.4 20.9 79.4 z"/><path d="M 21 73.8 c -1.3 0 -2.4 1.1 -2.4 2.4 c 0 1.3 1.1 2.4 2.4 2.4 c 1.3 0 2.4 -1.1 2.4 -2.4 C 23.4 74.9 22.3 73.8 21 73.8 z"/><path d="M 33.7 66.6 c -1.3 0 -2.4 1.1 -2.4 2.4 c 0 1.3 1.1 2.4 2.4 2.4 s 2.4 -1.1 2.4 -2.4 C 36.1 67.7 35 66.6 33.7 66.6 z"/><path d="M 94.7 75.4 V 57.2 c 0 -2.2 -1.8 -4 -4 -4 h -5.1 c -0.1 -0.1 -0.2 -0.2 -0.3 -0.2 H 84 c -0.1 0 -0.3 0.1 -0.3 0.2 h -1.5 c -0.1 -0.1 -0.2 -0.2 -0.3 -0.2 h -1.3 c -0.1 0 -0.3 0.1 -0.3 0.2 H 33 c -2.2 0 -4 1.8 -4 4 v 23.2 c 0 2.2 1.8 4 4 4 h 57.7 c 2.2 0 4 -1.8 4 -4 v -0.9 c 0.1 -0.1 0.2 -0.2 0.2 -0.3 v -3.4 C 94.9 75.6 94.8 75.4 94.7 75.4 z M 33.7 72.1 c -1.7 0 -3.1 -1.4 -3.1 -3.1 c 0 -1.7 1.4 -3.1 3.1 -3.1 s 3.1 1.4 3.1 3.1 C 36.8 70.7 35.4 72.1 33.7 72.1 z M 85.7 82.1 c 0 0.2 -0.2 0.4 -0.4 0.4 H 38.3 c -0.2 0 -0.4 -0.2 -0.4 -0.4 V 55.6 c 0 -0.2 0.2 -0.4 0.4 -0.4 h 47 c 0.2 0 0.4 0.2 0.4 0.4 V 82.1 z M 89.3 71.1 c 0 0.2 -0.2 0.4 -0.4 0.4 s -0.4 -0.2 -0.4 -0.4 v -4.5 c 0 -0.2 0.2 -0.4 0.4 -0.4 s 0.4 0.2 0.4 0.4 V 71.1 z M 91.5 69.3 c -0.3 0 -0.6 -0.3 -0.6 -0.6 s 0.3 -0.6 0.6 -0.6 c 0.3 0 0.6 0.3 0.6 0.6 S 91.9 69.3 91.5 69.3 z"/><path d="M 44.4 27.1 l -1.8 1.7 c 9.6 1 14.1 6.5 16.3 11.2 c 2.4 5.1 2.3 10 2.3 10.3 l 0 0.5 H 59.7 l 0 -0.5 c 0 0 0 -4.8 -2.2 -9.7 c -2.8 -6.1 -7.9 -9.5 -14.9 -10.3 l 1.6 1.7 l -2.1 -0.1 l -2.3 -2.5 l 2.5 -2.3 L 44.4 27.1 z"/></g>
</svg>