<svg xmlns="http://www.w3.org/2000/svg" xmlns:xlink="http://www.w3.org/1999/xlink" viewBox="0 0 1000 1000"><defs><style>.cls-1{mask:url(#mask);filter:url(#luminosity-noclip-3);}.cls-2,.cls-4,.cls-7{mix-blend-mode:multiply;}.cls-2{fill:url(#radial-gradient);}.cls-3{mask:url(#mask-2);filter:url(#luminosity-noclip-4);}.cls-4{fill:url(#linear-gradient);}.cls-5{isolation:isolate;}.cls-6{mask:url(#mask-3);}.cls-7{opacity:0.4;fill:url(#radial-gradient-2);}.cls-8{fill:url(#linear-gradient-2);}.cls-9{fill:url(#linear-gradient-3);}.cls-10{fill:url(#linear-gradient-4);}.cls-11{fill:url(#linear-gradient-5);}.cls-12{fill:url(#linear-gradient-6);}.cls-13{fill:url(#linear-gradient-7);}.cls-14{fill:url(#linear-gradient-8);}.cls-15{fill:url(#linear-gradient-9);}.cls-16{mask:url(#mask-4);}.cls-17{fill:url(#linear-gradient-10);}.cls-18{fill:url(#linear-gradient-11);}.cls-19{fill:url(#linear-gradient-12);}.cls-20{filter:url(#luminosity-noclip-2);}.cls-21{filter:url(#luminosity-noclip);}</style><filter id="luminosity-noclip" x="159.95" y="-8692" width="686.72" height="32766" filterUnits="userSpaceOnUse" color-interpolation-filters="sRGB"><feFlood flood-color="#fff" result="bg"/><feBlend in="SourceGraphic" in2="bg"/></filter><mask id="mask" x="159.95" y="-8692" width="686.72" height="32766" maskUnits="userSpaceOnUse"><g class="cls-21"/></mask><radialGradient id="radial-gradient" cx="920" cy="-23249.41" r="174.72" gradientTransform="translate(-1475.15 6224.44) scale(2.15 0.24)" gradientUnits="userSpaceOnUse"><stop offset="0" stop-color="#fff"/><stop offset="0.09" stop-color="#f5f5f5"/><stop offset="0.23" stop-color="#dbdbdb"/><stop offset="0.41" stop-color="#afafaf"/><stop offset="0.63" stop-color="#747474"/><stop offset="0.88" stop-color="#282828"/><stop offset="1"/></radialGradient><filter id="luminosity-noclip-2" x="441.75" y="-8692" width="116.49" height="32766" filterUnits="userSpaceOnUse" color-interpolation-filters="sRGB"><feFlood flood-color="#fff" result="bg"/><feBlend in="SourceGraphic" in2="bg"/></filter><mask id="mask-2" x="441.75" y="-8692" width="116.49" height="32766" maskUnits="userSpaceOnUse"><g class="cls-20"/></mask><linearGradient id="linear-gradient" x1="441.75" y1="707.26" x2="558.25" y2="707.26" gradientUnits="userSpaceOnUse"><stop offset="0" stop-color="#ccc"/><stop offset="0.52" stop-color="#b3b3b3"/><stop offset="0.77" stop-color="#b5b5b5"/><stop offset="0.89" stop-color="#bdbdbd"/><stop offset="0.99" stop-color="#cacaca"/><stop offset="1" stop-color="#ccc"/></linearGradient><filter id="luminosity-noclip-3" x="159.95" y="698.07" width="686.72" height="88.93" filterUnits="userSpaceOnUse" color-interpolation-filters="sRGB"><feFlood flood-color="#fff" result="bg"/><feBlend in="SourceGraphic" in2="bg"/></filter><mask id="mask-3" x="159.95" y="698.07" width="686.72" height="88.93" maskUnits="userSpaceOnUse"><g class="cls-1"><path class="cls-2" d="M846.67,741.52c0,24.56-122.93,45.48-346.81,45.48S160,767.09,160,742.54s116-44.47,339.91-44.47S846.67,717,846.67,741.52Z"/></g></mask><radialGradient id="radial-gradient-2" cx="920" cy="-23249.41" r="174.72" gradientTransform="translate(-1475.15 6224.44) scale(2.15 0.24)" gradientUnits="userSpaceOnUse"><stop offset="0"/><stop offset="1"/></radialGradient><linearGradient id="linear-gradient-2" x1="503.31" y1="701.14" x2="503.31" y2="267.93" gradientUnits="userSpaceOnUse"><stop offset="0" stop-color="#9a9a9a"/><stop offset="0.09" stop-color="#a2a2a2"/><stop offset="0.24" stop-color="#b8b8b8"/><stop offset="0.42" stop-color="#dbdbdb"/><stop offset="0.45" stop-color="#e2e2e2"/><stop offset="1" stop-color="#c5c5c5"/></linearGradient><linearGradient id="linear-gradient-3" x1="503.29" y1="287.71" x2="503.29" y2="265.1" gradientUnits="userSpaceOnUse"><stop offset="0" stop-color="#404040"/><stop offset="0.28" stop-color="#434343"/><stop offset="0.45" stop-color="#4b4b4b"/><stop offset="0.59" stop-color="#595959"/><stop offset="0.71" stop-color="#6d6d6d"/><stop offset="0.82" stop-color="#888"/><stop offset="0.92" stop-color="#a7a7a7"/><stop offset="1" stop-color="#c5c5c5"/></linearGradient><linearGradient id="linear-gradient-4" x1="93.97" y1="708.96" x2="500" y2="708.96" gradientUnits="userSpaceOnUse"><stop offset="0" stop-color="#929292"/><stop offset="0.01" stop-color="#c1c1c1"/><stop offset="0.03" stop-color="#b2b2b2"/><stop offset="0.05" stop-color="#9c9c9c"/><stop offset="0.07" stop-color="#a4a4a4"/><stop offset="0.09" stop-color="#afafaf"/><stop offset="1" stop-color="#cfcfcf"/></linearGradient><linearGradient id="linear-gradient-5" x1="93.97" y1="702.51" x2="906.03" y2="702.51" gradientUnits="userSpaceOnUse"><stop offset="0.01" stop-color="#f8f8f8"/><stop offset="0.06" stop-color="#d0d0d0"/><stop offset="0.5" stop-color="#f8f8f8"/><stop offset="0.87" stop-color="#d0d0d0"/><stop offset="0.88" stop-color="#d3d3d3"/><stop offset="0.95" stop-color="#e9e9e9"/><stop offset="1" stop-color="#f1f1f1"/></linearGradient><linearGradient id="linear-gradient-6" x1="500" y1="708.96" x2="906.03" y2="708.96" gradientUnits="userSpaceOnUse"><stop offset="0" stop-color="#cfcfcf"/><stop offset="0.91" stop-color="#afafaf"/><stop offset="0.93" stop-color="#a4a4a4"/><stop offset="0.95" stop-color="#9c9c9c"/><stop offset="0.97" stop-color="#b2b2b2"/><stop offset="0.99" stop-color="#c1c1c1"/><stop offset="1" stop-color="#929292"/></linearGradient><linearGradient id="linear-gradient-7" x1="93.97" y1="708.6" x2="500" y2="708.6" gradientUnits="userSpaceOnUse"><stop offset="0" stop-color="#666"/><stop offset="0.01" stop-color="#d5d5d5"/><stop offset="0.02" stop-color="#bdbdbd"/><stop offset="0.04" stop-color="#868686"/><stop offset="0.05" stop-color="#707070"/><stop offset="0.06" stop-color="#787878"/><stop offset="0.07" stop-color="#8e8e8e"/><stop offset="0.09" stop-color="#b2b2b2"/><stop offset="0.09" stop-color="#bcbcbc"/><stop offset="1" stop-color="#f1f1f1"/></linearGradient><linearGradient id="linear-gradient-8" x1="500" y1="708.6" x2="906.03" y2="708.6" gradientUnits="userSpaceOnUse"><stop offset="0" stop-color="#f1f1f1"/><stop offset="0.91" stop-color="#bcbcbc"/><stop offset="0.91" stop-color="#b2b2b2"/><stop offset="0.93" stop-color="#8e8e8e"/><stop offset="0.94" stop-color="#787878"/><stop offset="0.95" stop-color="#707070"/><stop offset="0.96" stop-color="#868686"/><stop offset="0.98" stop-color="#bdbdbd"/><stop offset="0.99" stop-color="#d5d5d5"/><stop offset="1" stop-color="#666"/></linearGradient><linearGradient id="linear-gradient-9" x1="442.21" y1="706.91" x2="557.79" y2="706.91" gradientUnits="userSpaceOnUse"><stop offset="0" stop-color="#9f9f9f"/><stop offset="0.04" stop-color="#acacac"/><stop offset="0.51" stop-color="#e5e5e5"/><stop offset="0.96" stop-color="#acacac"/><stop offset="1" stop-color="#9f9f9f"/></linearGradient><filter id="luminosity-noclip-4" x="441.75" y="702.2" width="116.49" height="10.1" filterUnits="userSpaceOnUse" color-interpolation-filters="sRGB"><feFlood flood-color="#fff" result="bg"/><feBlend in="SourceGraphic" in2="bg"/></filter><mask id="mask-4" x="441.75" y="702.2" width="116.49" height="10.1" maskUnits="userSpaceOnUse"><g class="cls-3"><path class="cls-4" d="M557.8,702.2a9.42,9.42,0,0,1-9.42,9.42H451.62a9.41,9.41,0,0,1-9.41-9.42h-.46v.71a9.41,9.41,0,0,0,9.41,9.4h97.68a9.4,9.4,0,0,0,9.41-9.4v-.71Z"/></g></mask><linearGradient id="linear-gradient-10" x1="441.75" y1="707.26" x2="558.25" y2="707.26" gradientUnits="userSpaceOnUse"><stop offset="0" stop-color="#f7f7f7"/><stop offset="0.52" stop-color="#f8f8f8"/><stop offset="1" stop-color="#f7f7f7"/></linearGradient><linearGradient id="linear-gradient-11" x1="500" y1="725.93" x2="500" y2="715.1" gradientUnits="userSpaceOnUse"><stop offset="0" stop-color="#575757"/><stop offset="0.74" stop-color="#b9b9b9"/><stop offset="0.85" stop-color="#b6b6b6"/><stop offset="0.94" stop-color="#acacac"/><stop offset="1" stop-color="#9f9f9f"/></linearGradient><linearGradient id="linear-gradient-12" x1="250.21" y1="233.01" x2="756.37" y2="739.17" gradientUnits="userSpaceOnUse"><stop offset="0" stop-color="#f2f3f4"/><stop offset="0.36" stop-color="#edeeef"/><stop offset="0.78" stop-color="#dfe0e0"/><stop offset="1" stop-color="#d5d6d6"/></linearGradient></defs><g class="cls-5"><g id="shadow"><g class="cls-6"><path class="cls-7" d="M846.67,741.52c0,24.56-122.93,45.48-346.81,45.48S160,767.09,160,742.54s116-44.47,339.91-44.47S846.67,717,846.67,741.52Z"/></g></g><g id="object"><path class="cls-8" d="M812.37,267.93H194.29a19.92,19.92,0,0,0-20,19.78V701.14h2.87V284.88a16.81,16.81,0,0,1,.19-2.57c0-.28.1-.56.15-.83s.12-.55.2-.82.14-.54.23-.8a16.8,16.8,0,0,1,3.41-6,8,8,0,0,1,.56-.6l.28-.29a17.33,17.33,0,0,1,2.89-2.29c.35-.22.7-.43,1.07-.63s.73-.37,1.11-.54h0l.77-.31h0a17.47,17.47,0,0,1,6.28-1.17H812.33a17.26,17.26,0,0,1,8.17,2c.36.2.72.41,1.07.63s.91.61,1.34.94h0l.63.52h0c.31.27.61.54.9.83l.29.29c.19.19.38.39.56.6a16.71,16.71,0,0,1,4.18,11.06V701.14h2.91V286.47A19.94,19.94,0,0,0,812.37,267.93Z"/><path class="cls-9" d="M174.2,284.88a19.92,19.92,0,0,1,20.05-19.78H812.33a19.92,19.92,0,0,1,20.06,19.78v1.59a19.94,19.94,0,0,0-20-18.54H194.3a19.92,19.92,0,0,0-20.06,19.78Z"/><rect x="177.11" y="689.57" width="652.38" height="11.58"/><path d="M829.48,285V689.57H177.1V285a17.1,17.1,0,0,1,17.15-17H812.33A17.1,17.1,0,0,1,829.48,285Z"/><polygon points="832.39 701.14 832.39 702.2 829.48 702.2 829.48 702.2 177.1 702.2 177.1 702.2 174.24 702.2 174.24 701.14 832.39 701.14"/><rect class="cls-10" x="93.97" y="702.81" width="406.03" height="12.29"/><rect class="cls-11" x="93.97" y="702.2" width="812.05" height="0.61"/><rect class="cls-12" x="500" y="702.81" width="406.03" height="12.29"/><rect class="cls-13" x="93.97" y="702.81" width="406.03" height="11.56"/><rect class="cls-14" x="500" y="702.81" width="406.03" height="11.56"/><path class="cls-15" d="M557.79,702.2a9.42,9.42,0,0,1-9.41,9.42H451.61a9.41,9.41,0,0,1-9.4-9.42Z"/><g class="cls-16"><path class="cls-17" d="M557.8,702.2a9.42,9.42,0,0,1-9.42,9.42H451.62a9.41,9.41,0,0,1-9.41-9.42h-.46v.71a9.41,9.41,0,0,0,9.41,9.4h97.68a9.4,9.4,0,0,0,9.41-9.4v-.71Z"/></g><path class="cls-18" d="M94,715.1a362.38,362.38,0,0,0,88.2,10.83H817.83A362.38,362.38,0,0,0,906,715.1H94Z"/><rect class="cls-19" x="190.6" y="292.62" width="625.38" height="386.95"/><image width="1894" height="957" transform="translate(189.78 293.58) scale(0.33 0.4)" xlink:href="../../secre.png"/></g></g></svg>